<?xml version="1.0" standalone="no"?><!DOCTYPE svg PUBLIC "-//W3C//DTD SVG 1.1//EN" "http://www.w3.org/Graphics/SVG/1.1/DTD/svg11.dtd"><svg t="1633264609726" class="icon" viewBox="0 0 1024 1024" version="1.1" xmlns="http://www.w3.org/2000/svg" p-id="5212" xmlns:xlink="http://www.w3.org/1999/xlink" width="200" height="200"><defs><style type="text/css"></style></defs><path d="M917.376 896 106.624 896C47.744 896 0 845.44 0 782.976L0 240.96C0 178.56 47.744 128 106.624 128l810.752 0C976.256 128 1024 178.56 1024 240.96l0 67.712L1024 444.16l0 338.816C1024 845.44 976.256 896 917.376 896L917.376 896zM981.376 272.896c0-55.104-42.112-99.712-93.952-99.712L136.576 173.184c-51.84 0-93.888 44.608-93.888 99.712l0 35.84 938.688 0L981.376 272.896 981.376 272.896zM42.688 444.16l0 306.944c0 55.04 42.048 99.712 93.888 99.712l750.848 0c51.84 0 93.952-44.608 93.952-99.712L981.376 444.16 42.688 444.16 42.688 444.16zM661.312 782.976l64-135.488 213.376 0-64 135.488L661.312 782.976 661.312 782.976z" p-id="5213"></path></svg>