<?xml version="1.0" standalone="no"?><!DOCTYPE svg PUBLIC "-//W3C//DTD SVG 1.1//EN" "http://www.w3.org/Graphics/SVG/1.1/DTD/svg11.dtd"><svg t="1633265378642" class="icon" viewBox="0 0 1024 1024" version="1.1" xmlns="http://www.w3.org/2000/svg" p-id="6208" xmlns:xlink="http://www.w3.org/1999/xlink" width="200" height="200"><defs><style type="text/css"></style></defs><path d="M917.65728125 907.4673125l0.178875-17.904375c0-425.21709375-344.71996875-769.921875-769.95478125-769.921875l-17.90521875 0.178875v125.1568125c365.9023125 0 662.51840625 296.60934375 662.51840625 662.4905625h125.161875z m-286.67334375 0l0.35690625-17.904375c0-266.999625-216.44803125-483.43921875-483.45946875-483.43921875l-17.90521875 0.35690625v124.97878125c207.673875 0 376.02478125 168.34246875 376.02478125 376.00959375h124.98384375zM129.97615625 800.0343125c0 59.335875 48.0988125 107.433 107.4346875 107.433 59.33840625 0 107.4346875-48.097125 107.4346875-107.433 0-59.32828125-48.09628125-107.4279375-107.4346875-107.4279375-59.335875-0.00084375-107.4346875 48.09965625-107.4346875 107.4279375z" p-id="6209"></path></svg>